/* XPM */
static char *_f70611fd5af4538d7d4571668294645diw1wWMr74VMU3Ji[] = {
/* columns rows colors chars-per-pixel */
"60 60 32 1 ",
"  c #000000",
". c #01000C",
"X c #010013",
"o c #02001D",
"O c #020023",
"+ c #ECBC01",
"@ c #EFC001",
"# c #F5C404",
"$ c #F9C706",
"% c #F7C806",
"& c #FDCB06",
"* c #F5C408",
"= c #F8C708",
"- c #FECD0B",
"; c #FFCF11",
": c #FFD114",
"> c #FFD21C",
", c #FFD424",
"< c #FFD62C",
"1 c #FFD82B",
"2 c #FED733",
"3 c #FFD834",
"4 c #FFD739",
"5 c #FFD93C",
"6 c #FFDB44",
"7 c #FFDC4D",
"8 c #FFDD53",
"9 c #FFDE5A",
"0 c #FEE05E",
"q c #FFDF64",
"w c #FFE166",
"e c #FFE169",
/* pixels */
"                                                            ",
"                                                            ",
"                                                            ",
"                                                            ",
"                                                            ",
"                                                            ",
"                                                            ",
"                                                            ",
"                                                            ",
"                                                            ",
"                                                            ",
"                                                            ",
"                                                            ",
"                                                            ",
"                                                            ",
"               &&&&;:,133556778000eweweeewww0               ",
"               &&&--->22256678899weeweeeqewqw               ",
"               &&&&&-:22256678890wewwweeeweew               ",
"               %%&&&-><2566678890eeeeweeeweww               ",
"               -#%&&->22256677990weeweqewwwee               ",
"               ;%#*-><<2457667890wwwewewweeeq               ",
"               ---->,<22456678899wwewwweeweew               ",
"               -;;>,,,<2256678899wwwwewwwewe0               ",
"               -;;>>,,<22456668899wwewewwew90               ",
"               --:>>,,<<22567778990wwwwewq000               ",
"               &-;:>>,<<225566778889090w00908               ",
"               &-;;>>,<<224456778898899087777               ",
"               &&;;>>,,,<22556677778088866666               ",
"               &&-:::>,,<23255667777877655655               ",
"               &&-;::>,,,12225566677776454424               ",
"               &&--;:>>,,<<333556666666222223               ",
"               &&&--;:>>,,,<<335555676622<221               ",
"               %&&&;;::>>,11<32223555552<<<<<               ",
"               %&&&--;:>>>>,111222224454<,,,,               ",
"               %%&&&&;;:>>,,,,11<32322222<<<<               ",
"               #%&&&&--;::>>>,,11<<<2<22<2<2<               ",
"               +#%&-;;--;::>>>,1,,,1,<<<<,111               ",
"               +%&&&&;;;-;::>>>>>,,,,,,,,,,,,               ",
"               *%&&&--:&--;::::>>>>,,>,,>,>>>               ",
"               &&&-&&&--&&&-;:::>>:>>>>>>>>>>               ",
"               &&&;;&-&-&&&&-;-:::::::>::>:::               ",
"               &&&&&-&&&&&&&&&--;-;;::::-;::;               ",
"               %&&&&--&%%&&&&&&&-----;;-;--:&               ",
"               -=&&&&&%##%%&&&&&&&&&&-&-&&&&-               ",
"               ;%$%&&#++@###&&&&&&-&&&&&&&&&&               ",
"                                                            ",
"                                                            ",
"                               .                            ",
"               .                                 .          ",
"  .  ..   .  .  .  ..  .. .  .   .. .  . ..  .    . .    .. ",
".   .  . .. ..    .  .. . ... ... .  ..    .. ...    ...    ",
"...... .. ... .... .. .. ...... ..... ...... .. ..... ......",
"...X.....X..................X..X..........X.X...............",
"............X.X..X...X.X..X......X..X..X.........X.........X",
"X.....X.....X.X.XX.XX.X..X.XX.X.XX.XX.X..X.XX.XXXXX.......X.",
"XXXXXXXXXXXXXXXXXXXXXXXXXXXXXXXXXXXXXXXXXXXXXXXXXXXXXXXXXXXX",
"XXXXXXoXXXXXXXXXXXXoXXoXXoXXXoXXXXXoXoXXoXXXXXXXXXXXXXXXoXXX",
"oooOooooooooooooXooooooooooooooooooooooooooooooooooooooooooo",
"oooOOooOOOOoOOoOOoOoOOoOOOOOOOoOOOoOOOoOOOOoOoOooOoOOOoOoooO",
"OOOOOOOOOOOOOOOOOOOOOOOOOOOOOOOOOOOOOOOOOOOOOOOOOOOOOOOOOOOO"
};
