/* XPM */
static char *bd7d5279e7a34d4380507efc8597a1acmH6ifqKbPekLlkdn[] = {
/* columns rows colors chars-per-pixel */
"60 60 115 2 ",
"   c #000002",
".  c #01000C",
"X  c #020014",
"o  c #02001C",
"O  c #00081F",
"+  c #020023",
"@  c #000924",
"#  c #080820",
"$  c #03002A",
"%  c #020B2C",
"&  c #040032",
"*  c #020D32",
"=  c #05013A",
"-  c #00133E",
";  c #060143",
":  c #020E40",
">  c #001241",
",  c #02134C",
"<  c #001453",
"1  c #021456",
"2  c #001451",
"3  c #001952",
"4  c #021854",
"5  c #001953",
"6  c #001358",
"7  c #02135B",
"8  c #011458",
"9  c #03175C",
"0  c #02195C",
"q  c #01185E",
"w  c #001959",
"e  c #041366",
"r  c #011D66",
"t  c #041469",
"y  c #021B6D",
"u  c #002172",
"i  c #012276",
"p  c #00257E",
"a  c #02257F",
"s  c #01267E",
"d  c #01267F",
"f  c #02277F",
"g  c #02217A",
"h  c #002681",
"j  c #012681",
"k  c #022780",
"l  c #012586",
"z  c #032587",
"x  c #022686",
"c  c #012583",
"v  c #002689",
"b  c #00268B",
"n  c #01278C",
"m  c #00258F",
"M  c #01268E",
"N  c #00278E",
"B  c #01288F",
"V  c #002790",
"C  c #012593",
"Z  c #022792",
"A  c #012796",
"S  c #022696",
"D  c #002A96",
"F  c #012B97",
"G  c #002B91",
"H  c #022599",
"J  c #022698",
"K  c #00309F",
"L  c #002FA1",
"P  c #0131AF",
"I  c #0035B5",
"U  c #0036B4",
"Y  c #0035B7",
"T  c #0135B4",
"R  c #0035B9",
"E  c #0236BD",
"W  c #0137BE",
"Q  c #0136BB",
"!  c #0039BF",
"~  c #0038BF",
"^  c #0037C0",
"/  c #003AC0",
"(  c #013BC0",
")  c #0139C2",
"_  c #013AC5",
"`  c #013AC7",
"'  c #003CC5",
"]  c #013AC4",
"[  c #003ECF",
"{  c #013AC9",
"}  c #013FD0",
"|  c #003ED1",
" . c #003DD3",
".. c #0144DF",
"X. c #0143E0",
"o. c #0142E4",
"O. c #0143E0",
"+. c #0047EF",
"@. c #0047F1",
"#. c #0047F2",
"$. c #0049F0",
"%. c #014AF1",
"&. c #0049F0",
"*. c #004BFF",
"=. c #004DFD",
"-. c #004CFE",
";. c #004CFF",
":. c #014CFF",
">. c #004DFF",
",. c #014EFE",
"<. c #004FFE",
"1. c #014EFF",
"2. c #024FFF",
"3. c #004DFF",
"4. c #0050FF",
/* pixels */
"o + = $ o $ $ + + o + o o X X X . . . . . .   .       .   .   . .   . .     .                     . . . . . X .       . ",
"o o $ $ o + + $ + + + o o o . X . X . .       .     .                           .                 . X . X . .         X ",
"+ o $ $ + + $ + o o o X X X X . . . .   .     .                                               . . . . X .     .   . . . ",
"o o $ $ $ + + + o o o X X X o o X X . .   . .   .                                 . . . . . . . . . . X . .   . . . . . ",
"o o o o o $ $ + + o o o X o + + + o o X X X . X . . .                             . . .   . . . . . . . . . . . . . . . ",
"+ o o X X $ + + o + + o o o $ o o o X X X X X . . .                             . . .     . .     .   . . . X . . . . . ",
"o o o X X + $ + o + & $ + + + o + + o X X X X . . .   .                       . . . . .       . . . . . . . . .   . . . ",
"$ + o o o + + + o o $ $ + + + o o + o o X X . .   . .                   . . . X . X X . . . X . X X o X . .       . . . ",
"& + o o o $ $ + o o $ $ + + o o o o o o o X X X . . . .   . .   . . X o o $ + + + o o X o o + o o X X $ $ + X . X .   . ",
"$ # o o X $ + + o o $ + + + o o X X o + + o o X X X X . . . . . . X o X X $ + + o o X X + + + + X o X # + $ o o X . . . ",
"# o o o o + + X X X $ + $ o $ $ + o o + + o o X o X X X . .   . X o o X X + + + o X o X + $ + o o o X + + + o o + . . . ",
"o o o o + + + o o X + $ + o o & $ + + + o + + o X X X . . . .   o o o o X # + $ + o X X o + + + o X X o + # o o $ . . X ",
"o # $ + + $ + X o X o + + o X $ $ + + + + o + + X X X X . . . . # $ + X X o + & $ + X X X + + o o o X X + + o o + X   . ",
"o o $ $ + + $ o X X o + + # o $ $ + o + o o + o o o X X X . . . O & + X X X # = $ + o X X + + o o + o X + o o X + . .   ",
"o X $ + + + $ + o X X o + o o + + + + o + o o o o o X X X X . . . o $ # o X + & $ $ + X X + o o + + + o o o X X X       ",
"o # + $ + o + $ + o X + o o X o $ + + + + o + o o X X X . . .     . o + + + o & $ $ $ + o + + + + $ $ + + o o X   . .   ",
"o $ + + + o + + $ + + o o X X o $ $ + o o o X X . . .                 X + O X + + + o + o o + + o + o o X X . .         ",
"o $ + $ + + + + + + o o o o o o + o o X X X . . . . .                   . . . . .                             .         ",
"o $ + + + = & + o o o X X X o + o o o X X X . . . .                                                           o         ",
"+ + + + o $ = $ + o o X X . X + + o o X X . X X . .                                                           $ .     . ",
"+ $ + o y M A H Z M v v z z M 6 + o % n n - . . .         O f s %       s s %   - s s k s k s k k k s k k s k e $     . ",
"o $ + + W ,.*.,.,.,.,.,.,.,.,.M o o X U :. .O . . . . .   ! %...      . ,.,.3   s ,.,.,.,.,.,.,.,.,.,.*.,.,.*.H = X .   ",
"X $ + + { ,.o.C A A C M M z M 8 o o o $ #.,.F . . .     u ,.,.%       . ,.*.3   - s s s k s L ,.*.K s k s s k t = . X . ",
"X + $ o W ,.' X $ $ + + o o + + o o o X e :.,., . . . @ %.,.f         . ,.,.3               - *.,.-           $ # . . . ",
"o o + + U ,._ X + + + o o o # + o o o X X U ,.X.o   . ! ,.}           . 4.4.3               > ,.,.>           + X   . . ",
"$ + + + / ,.{ X + $ + + o o X o + o o X X + #.*.F . u ,.,.%           . 4.4.3               > *.*.-           X X . . . ",
"$ $ + + { ,._ X + + + o + o X X o o o X X X q ,.4.r %.,.s             . 4.,.3               > ,.,.>           . . . X . ",
"+ + + o ) ,. .2 2 7 6 8 < 2 2 X X o o X X X . T :.,.,.}               . =.,.3               > ,.,.>           .   . . X ",
"o + + o W *.,.*.*.,.,.,.,.,.,.X X X X X X X X O ,.,.,.*                 ,.,.3               - *.,.-                     ",
"o $ + o ] *.#.{ _ { { { { { _ X X . X X X X . i ,.,.,.>               . *.,.3               - ,.,.-                 . . ",
"o + + + _ *._ o + + o + o o o X X . X X X X % %.*.X.,....             . ,.,.3               > *.,.>         .       X + ",
"o + + + { ,.{ o o + + o o o X X X . . X X X ] ,._ X %.4.G             . ,.*.3               - ,.*.>               X o o ",
"X $ + + ) *.{ o o o + o o X X X X . . . X g *.#.% . 4 ,.*.>             ,.,.<               > ,.*.-         . . o + o X ",
"o + + + E ,.{ o X X o + o o X o . X X . * %.,.i . . . T ,.X.X         . ,.,.3               - ,.,.-         X o + o . . ",
"X $ + + Q ,.` o o o o $ o o X X X X X . _ *._ X X . . o %.,.s .       X *.,.3               > ,.,.>   .     . X . . . . ",
"X + + + T 4.` o X X X $ o o X X X . . i ,.#.* X X . . . < ,.,.* .   . . ,.,.4 . .   .   . . , ,.4.,     . . . . . . . X ",
"X + + + T *.:.:.,.*.,.,.:.,.,./ . X % %.4.g o X X X . X . U *.[ .   . . 4.=.0 . . . . .   . > ,.,., .     . . X . . X X ",
"o X + + T ,.:.:.,.,.,.,.,.,.*._ X X / ,./ . o X X X X X . O #.,.x . . O 4.=.q . . . . . . . , *.,., . . . . . X . X o + ",
"X o o % + o o o o o + o o X X X X X . . . . . X o X X . X . . . . . . X . . . . . . . . . . . . . . . . . . X X X o + X ",
"o X X $ + + X X o o + o o o o X X . . . .   . . . . . X . X . X X . . . . . . . . . . o o & $ o $ $ + + X X o o o . X . ",
"X o X + $ + + + X + + # o X X X X . X X X + + o o o X X X o o + o o X X X . . X . . . + o $ $ + $ $ + + o X o . .     . ",
"o X X + + + + + $ + + o o o o X X X X X X $ + $ o + $ o o o + + o o o X X X X . . . . + o $ $ + + $ + + o o . .     . . ",
"o X X o + + + + + + + + o X X X X o o o X + + + o o & $ + + o o o + o X X X X . . . . o o $ + $ + + + + o o .           ",
"+ o X X o + o + + + + + o o X o o + X X X + + + o o & $ + + + # o + + X X X X . . .   o o o o o $ + + + o o . .         ",
"$ + o X + o o + + o + + X X X X o $ + X X o + + o o $ + + + + o o + + o o X X X X X . + o X X X $ + + o $ + X           ",
"$ $ + o o o o + o + + o o X X X o $ + o X X # + o o $ $ + o o + o o o o o X X X X . . # o o o X + + + o + & X   .     . ",
"$ $ $ + + o X + + o + o X o X X X o $ + o X + o o o o $ $ + o + o + o o X X X X . . . $ o o o X + + + o X + X . . . O + ",
"+ + $ $ $ + + o o o # X . X X X X o + + + o + o X X o $ $ + + o + o o X X X . . . .   & $ # X X o + o + X o . X X + + X ",
"+ $ $ $ $ $ $ + + o o X X X X o X X X X o X X X X X X o X X X X X X X X X X . . . X X + & + X X X + + o .   . o X . . . ",
"o & $ $ + + + + + o X X X . X X o X X X . . . X X . . . .           .   . . X X + + + X + $ + o X + o + X . o X X . . X ",
"+ $ + o + o + o o X + o o o o o X X X X . . . X . . .             . .     . o X . . . X X o + o X o o o X o o X . X . . ",
"+ o o o + o o o o o o X X o X X X X X . X . . . . . . .           X + X . o X X . . X . X . X X o + o X + o X X o o . . ",
"o + + + o o o o + o o o X X X X X X X X X .   . . . . .       . . o o o o o o X . . X X . X o + + X . . X X X + + + X . ",
"+ $ + $ + o + + o o o o X X X X X X . . . .   . X . X . . . . o + + + # o X . . . . X X X . . . . .   . X X X X . X . . ",
"$ $ + + + + $ + + + o o X o X o X X X . . .   .   . X . . o + $ + + o o X X X . . . . . . . . . . . . . X X X . . . X . ",
"= $ $ $ o $ $ + + o X X X . X X o X X . . . .   .     . o X X X o o X X X X X . . . . . . . . . . . . X X o X . . X . . ",
"& $ $ + + $ $ $ + o X X X . . X X X X X X . . . .   . X X X X X X X X X X X X X .   . . . . . . . . . o X . . . . X X X ",
"& & & $ + + $ $ $ o o X X X X X X o X X X . . . . . . o X o o X X X X X X . . . . .   X X . . X . . . X X X . . . . . . ",
"& & $ $ $ + + + + o o o o X X . X o o X X X . . .   o o o X X X X X X X X . X . . .   . . . . X . . . X X . . . . . . . ",
"& & & $ $ + + + % + o X o o o o X o X X X . . . . . o o o o X X X X X o X X X . . .       . . X X . . . X X X . . . X . "
};
