/* XPM */
static char *f36be27f28244526c8fabb59f414141bWiogDfr5gKPHlS6P[] = {
/* columns rows colors chars-per-pixel */
"60 60 172 2 ",
"   c #000001",
".  c #0A0901",
"X  c #01000C",
"o  c #120F08",
"O  c #191606",
"+  c #1E1A07",
"@  c #010013",
"#  c #02001D",
"$  c #181712",
"%  c #282306",
"&  c #2C250B",
"*  c #26210D",
"=  c #372E0D",
"-  c #2E2A1F",
";  c #22221A",
":  c #020023",
">  c #242223",
",  c #3D3A2C",
"<  c #453A0D",
"1  c #423F32",
"2  c #4F420D",
"3  c #4C4318",
"4  c #6C5D1A",
"5  c #454234",
"6  c #534D37",
"7  c #6A5B22",
"8  c #7B6A24",
"9  c #5A5442",
"0  c #6E674B",
"q  c #6F684C",
"w  c #706748",
"e  c #877E5F",
"r  c #BE9701",
"t  c #BD9801",
"y  c #A68D26",
"u  c #B0982C",
"i  c #C49C01",
"p  c #C29D0B",
"a  c #C29D10",
"s  c #C7A102",
"d  c #CCA301",
"f  c #D1A702",
"g  c #D5AA01",
"h  c #DAAD01",
"j  c #D3AB0E",
"k  c #DEB101",
"l  c #DBB00B",
"z  c #C5A31C",
"x  c #C9A519",
"c  c #D1AA11",
"v  c #D2AD1E",
"b  c #D7B017",
"n  c #DEB819",
"m  c #DAB51F",
"M  c #E3B501",
"N  c #E6B901",
"B  c #EBBB01",
"V  c #F0BF01",
"C  c #EBBF1E",
"Z  c #C3A423",
"A  c #CAAB2E",
"S  c #D1AF29",
"D  c #D4B32C",
"F  c #D8B72A",
"G  c #C9AB36",
"H  c #CBB03F",
"J  c #D9B930",
"K  c #D4B538",
"L  c #E7BE28",
"P  c #E1BD35",
"I  c #EFC001",
"U  c #F4C303",
"Y  c #F9C706",
"T  c #FCCB06",
"R  c #F4C408",
"E  c #FECD0B",
"W  c #FFD00E",
"Q  c #EBC01C",
"!  c #F0C111",
"~  c #FFCF12",
"^  c #F6C91D",
"/  c #F9CE1F",
"(  c #FFD114",
")  c #FFD21C",
"_  c #F3C726",
"`  c #FACE24",
"'  c #F3CB2A",
"]  c #F5CA25",
"[  c #FFD424",
"{  c #FFD62C",
"}  c #EEC932",
"|  c #E5C33D",
" . c #F4D031",
".. c #FED733",
"X. c #FFD835",
"o. c #F7D23C",
"O. c #FDD63A",
"+. c #FFD93C",
"@. c #8A8156",
"#. c #91855C",
"$. c #968A5A",
"%. c #9D915D",
"&. c #9A8E64",
"*. c #9C936A",
"=. c #AB9F6D",
"-. c #BCAA6A",
";. c #AFA273",
":. c #BDAE77",
">. c #CEB34A",
",. c #DABC40",
"<. c #D3B648",
"1. c #D0B752",
"2. c #D4BC5A",
"3. c #D5BE63",
"4. c #C0B074",
"5. c #DAC15A",
"6. c #EECE47",
"7. c #E3C447",
"8. c #F0CC42",
"9. c #FAD745",
"0. c #FFDA43",
"q. c #FEDB43",
"w. c #FFDA41",
"e. c #FFDB45",
"r. c #FFDB47",
"t. c #FFDA47",
"y. c #FDD945",
"u. c #FFDB44",
"i. c #FFDB4A",
"p. c #FFDC4A",
"a. c #FFDB4F",
"s. c #FFDC4C",
"d. c #FFDC4E",
"f. c #FDDD4C",
"g. c #FFDC4C",
"h. c #F7D44B",
"j. c #E0C250",
"k. c #E3C85F",
"l. c #E8CA52",
"z. c #EFD15F",
"x. c #F8D752",
"c. c #FEDD50",
"v. c #FEDD52",
"b. c #FFDD55",
"n. c #FFDE56",
"m. c #FEDD53",
"M. c #F7D95F",
"N. c #FFDE5A",
"B. c #FFE057",
"V. c #FEE05E",
"C. c #DEC66E",
"Z. c #D4C174",
"A. c #DAC77A",
"S. c #D4C278",
"D. c #FEDE63",
"F. c #F6DC6E",
"G. c #FEDF6B",
"H. c #F3D661",
"J. c #EAD57A",
"K. c #F7DE77",
"L. c #F8DD72",
"P. c #F5DD7D",
"I. c #F8DF7B",
"U. c #FFE165",
"Y. c #FFE169",
"T. c #F8E076",
"R. c #FDE37C",
"E. c #D4C486",
"W. c #E6D387",
"Q. c #E8D588",
"!. c #F7DF82",
"~. c #F9E287",
/* pixels */
"                                                                                                                        ",
"                                                                                                                        ",
"                                              q F.c.O.` ` / ^ ^ ] _ 6.M.W.                                              ",
"                                        ~.O.( T T T T T T T T T U U U U B B Q H.                                        ",
"                                  ; 9.) E E T T W T E T T T T T T T T U U B B N N L W.                                  ",
"                              , y.W ( ( ~ ~ ( W E W E E T T T T T T T U T U U B N M h C Q.                              ",
"                            D.) ( ) ~ ( ( ( ( ( ( ( ( E E E W T T T T T Y U U I V N N M k P ,                           ",
"                      . 6 ..) ( ) ( ) ) ) ) ) ) ) ( ( ( ( ( E W W T T T T T U U U B B N M h l k.                        ",
"                      L.) ) ) ) ) [ ) [ ) ) ) ) ) ) ) ( ) ( ( W E E E T T T T T R V B B M M h h J                       ",
"                    x.) ) ) ) [ [ [ [ [ [ [ { [ [ [ ) ) ) ) ( ( ( E E E T T T T Y R V B N M M h h v 5                   ",
"                  9.) [ [ [ [ { [ { { [ { [ { { [ [ [ [ ) ) ) ) ( ) ~ E W T T T T Y V V B N M M h g j 1                 ",
"                x.) [ [ [ [ { { { { { ....{ { { { { [ { [ [ [ ) ) ( ( W E W T T T T Y V V B M M k g g j 5               ",
"              x.[ [ [ { { { ..{ ..................{ { { { [ [ [ ) ) ) ( W E T T T T T R I B N M k h g f v               ",
"            K.[ [ [ { { { ....X.X.O.X...X.O.X.X...X.X...{ { { [ ) ) ) ) ( ( W E T T T Y U I B N M k h g f S             ",
"          q [ [ { { { ....X.X.+.O.+.+.+.+.+.O.+.O.O.X.X.....{ { [ [ [ ) ( ( ( E T T T T Y I B N M k h g f d 5.          ",
"          { [ { { ......X.+.w.+.q.q.w.e.q.q.q.q.+.+.O.X.X...{ { { [ [ ) ) ) ( E E T T T Y U U B N M h h f d d ;.        ",
"        T.[ { { ....X.+.+.+.w.q.e.e.e.p.y.p.e.e.q.w.+.+.O.X.....{ { [ ) ) ) ( ( W T T T T U U B N M k h g f s v         ",
"      $ { { { ....X.O.+.w.w.e.e.p.p.p.p.i.p.p.p.e.e.e.w.+.+.X...{ { { [ ) ) ) ( W E T T T Y U I N M M h g g d s C.      ",
"      U.{ { { ..X.O.+.w.e.e.p.d.d.d.v.v.v.v.c.d.d.p.y.w.q.+.O.X.X...{ { [ ) ) ( W W W T T T U I B N M k g g d i i       ",
"      [ { { ....+.+.q.e.e.d.d.v.v.v.b.b.b.b.b.b.v.d.d.p.e.q.+.+.....{ { { ) ) ( ( W T T T T Y U V B M h h g f d i C.    ",
"    M.[ { ....O.+.q.q.p.d.d.d.b.b.N.V.N.V.N.N.b.b.v.d.d.p.e.q.+.+.....{ { [ ) ) ( ( W T T T Y U V N M M h g f d i x     ",
"    [ { { { X.+.+.q.e.p.d.v.b.N.V.V.V.V.V.V.V.N.N.b.v.d.f.e.e.q.O.O...{ [ [ ) ) ( ( E T T T T U V B M M k g f d i t E.  ",
"  4.[ { ....O.+.q.q.p.d.d.b.N.N.U.U.D.U.U.U.U.V.V.N.b.v.d.p.e.e.+.X.....{ [ [ ) ) ( W W T T T Y V B N M h g g d i i <.  ",
"  f.{ { ....O.+.q.p.p.d.b.N.N.V.U.U.U.U.U.U.U.U.D.V.N.b.v.d.p.e.+.+.....{ { [ ) ) ( ( T T T T T V V N M k h g f s i p   ",
"  ..{ { ..X.O.q.e.p.d.v.b.V.V.U.Y.U.Y.U.Y.U.Y.U.U.V.N.V.v.d.d.y.q.O.X...{ { [ ) ) ( W E T T T Y V V N M k h g d i i i *.",
". [ [ { ..O.O.+.e.d.d.b.b.V.U.U.U.Y.U.U.U.Y.U.Y.U.U.V.N.v.d.p.e.y.+.O.X.{ { [ [ ) ( ( W T T T T U V B M k h g f f i i 3.",
"~.[ [ { ..X.+.e.p.p.v.b.V.V.D.U.U.Y.U.Y.U.Y.U.U.U.U.U.N.b.d.d.e.e.+.X.....{ [ ) ) ( W W T T T T U B B M h h g d i i i G ",
"G.[ { ....O.+.q.e.p.v.b.N.U.U.U.Y.U.Y.Y.Y.U.Y.U.U.Y.N.N.b.v.d.p.e.+.O...{ { [ [ ) ) ( W T T T U U V B M M h g f s i t t ",
"d.[ { ....O.+.e.p.d.d.b.V.V.U.U.U.U.Y.Y.Y.U.U.Y.U.U.V.N.V.v.d.p.w.+.+.O...{ [ ) ) ) ( W E T T T U V B M h h g f i i i r ",
"O.[ [ { ..X.+.q.y.d.d.b.V.V.U.U.Y.U.Y.U.Y.U.Y.U.U.U.U.V.v.d.d.y.q.+.X.X.{ { [ [ ) ( W W E T T T U V B M M h g d d i i t ",
"{ [ { { ..X.+.q.e.d.d.v.b.V.U.U.Y.U.U.Y.U.Y.U.U.Y.D.V.N.b.v.p.e.q.+.X.X...{ [ [ ) ( W W T T T Y U B N M h h g f s i t t ",
"{ [ { { X.X.O.w.e.p.d.v.B.V.U.U.U.Y.U.U.Y.U.U.U.U.U.V.b.v.d.d.e.q.O.O...{ [ [ ) ) ( W W T T T Y U V N M M h g d i i r t ",
"` [ [ { X.O.X.+.e.p.p.v.b.N.N.U.U.U.U.U.U.U.U.U.U.V.N.b.c.U.!.e.w.O.X...{ { [ ) ) ( ( E T T T Y U N N N k g g f i i i i ",
"{ [ [ { { ..X.+.w.e.d.d.v.x.x.D.U.V.U.U.U.U.U.D.V.N.v.v.c.    b.+.O.X...{ [ [ ) ) ( E E T T T Y U B B M k g f d i i i r ",
"O.) [ { { X...X.+.e.e.6.8 & * 7 5.V.V.U.V.V.V.V.N.b.v.d.P.      +.O...{ { [ [ ) ( ( E T T T Y U U N N h h g g d i r r r ",
"9.) [ [ [ ....O.+.w.| &     .   o <.N.V.V.V.V.b.b.v.d.D.        R.X...{ [ [ ) ( ~ ( E E T T Y U U B M M h g f d i r r r ",
"x.) [ [ { { ..O.+.+.4           . 3 N.m.b.b.b.v.v.d.p.-           e.{ { [ [ ) ) ( W W T T T Y U V B M M g g f d i i t t ",
"R.) ) [ [ { { ..X.O.%     . .     + 7.m.v.v.d.d.d.r.G.            @.{ { [ ) ) ( W W W T T T Y I B N M k g f f s i r t z ",
"  ( ) ) [ [ { ....X.+ .   .       O ,.d.d.p.d.d.i.d.                m.[ ) ) ) ( W E T T T Y I I B M M h h f f i t r r 2.",
"  [ ) ) [ [ { { ....2             = 9.p.p.e.e.e.e.%.                  [ ) ) ( ( W E T T T Y I I N M k h f f d i i t t &.",
"  o.( ) ) [ [ { { ..S O     .   . u e.e.q.q.y.w.B.                    A.) ( ( E E T T T Y U I B M M M g g d s i r t t   ",
"  Z.( ( ) ) [ [ { { { z < . . = y +.w.+.w.+.+.+.                        O.( ( E T T T Y Y I I B M M h g f d i i t r H   ",
"    ( ( ( ) ) [ [ { { { ' F F } X.X.X.O.O.+.X.T.                        6 W E T T T T T U I B N M h h g f s i r t t S.  ",
"    y.W ( ) ) ) [ ) { { { { ................p.                            b.W T T T T U U I N M k h g f d s i i t a     ",
"      W ( ( ) ) ) ) [ [ { { { { { { ..{ { ..$.                              ) T T Y Y U B B N M k h g f s i t t t 1.    ",
"      O.T ( ( ( ) ) ) [ [ [ [ { [ { { { { m.                                -.T T T U B B N M h h g f d i i t t t       ",
"      0 W E W ( ( ( ) ) ) ) ) [ [ [ [ [ {                                     o.Y U U B N M M h g g f d i i t r >.      ",
"        m.T E W ( ( ( ( ) ) ) ) [ ) [ ) ~.                                      R V B B N k M h g f d i i t t p         ",
"          E T E W W W ( ( ) ( ) ) ) ) {                                 X     X J.B B N M k h g f d i i r t t S.  X     ",
"        X S.E T T W E E E ( ( ( ( ( ) #.  X X       X     X     X           X   X Q N M k h g g d d i i r r G           ",
"X X     X   x.T T T E T W W E E ( ~ D.  X     X X X X   X   X X     X   X     X   1 M M h h f g i i i i t Z X   X     . ",
"X   X X   X   ..T T T T T T E W E [ X X   X   X   X X X X X X   X X X X X   X X X   l.h h g f i d i i r a >   X   X X X ",
"X X X X @ X X X ..Y T T T T T T T #.X X @ @ X X X X X X X X X X X X X X X X X X X X X F g f d i i t t p 9 X @ X X X X @ ",
"@ X X X X X X @ X  .Y T T T E T 9.@ X X X X X X X X @ X X X @ X @ X X X X X X @ X X X =.f d s i t t p e X X X X X X X X ",
"X X X X X X X X X X ] U Y Y T E @ @ X @ X X @ @ X @ X @ @ @ @ X @ X X @ X @ @ X X @ X @ K i i i t t :.X X @ X @ X X X X ",
"@ @ @ @ @ @ @ @ @ X @ h.U R R T.X @ @ @ @ @ @ @ @ @ @ X @ @ @ @ @ @ @ @ @ @ @ @ @ @ @ @ @ p r r Z @ @ @ X X @ @ @ @ @ @ ",
"@ @ @ # @ @ @ @ # @ # @ R.! _ @ @ @ @ # @ @ @ # @ @ # @ @ @ # @ @ @ # @ @ # @ @ @ @ # @ @ 3.i >.@ @ @ # @ @ # @ @ @ @ @ ",
"# # # # # # : @ # # # # # # # # # # # # # # # # # # # # # # # # # # # # # # # # # # # # # # ;.# # # # # # # # # # # # # ",
"# # # # # # : : # : # # : # : : # : # # : : : : : : : # : : : : : : : # : : : : : # # : : # : # : : # # : # : # : # : # ",
": : : : : : : : : : : : : : : : : : : : : : : : : : : : : : : : : : : : : : : : : : : : : : : : : : : : : : : : : : : : "
};
