/* XPM */
static char *b64c1d607a8444e3faa5d358cb4f5fe6BxRPb8aHg392jAIS[] = {
/* columns rows colors chars-per-pixel */
"60 60 172 2 ",
"   c #000000",
".  c #0A0902",
"X  c #01000C",
"o  c #101006",
"O  c #181505",
"+  c #1E1A07",
"@  c #010014",
"#  c #02001D",
"$  c #181712",
"%  c #282306",
"&  c #2B250B",
"*  c #26210D",
"=  c #372F0D",
"-  c #29261E",
";  c #020024",
":  c #242227",
">  c #3D3A2C",
",  c #453A0D",
"<  c #423F2E",
"1  c #433E38",
"2  c #4F420D",
"3  c #4C4318",
"4  c #6B5C19",
"5  c #45423C",
"6  c #534D37",
"7  c #6A5B22",
"8  c #7B6A24",
"9  c #5A5442",
"0  c #6F6647",
"q  c #6F684C",
"w  c #6D664A",
"e  c #877E5D",
"r  c #BE9701",
"t  c #BD9801",
"y  c #A78E27",
"u  c #B2972C",
"i  c #C09701",
"p  c #C49C01",
"a  c #C99E01",
"s  c #C29D0B",
"d  c #C39E12",
"f  c #C7A102",
"g  c #CCA301",
"h  c #D1A702",
"j  c #D5AA02",
"k  c #DAAD01",
"l  c #D3AB0E",
"z  c #DEB101",
"x  c #DBB00B",
"c  c #C5A31C",
"v  c #CDA91D",
"b  c #D1AA11",
"n  c #D2AD1E",
"m  c #D7B017",
"M  c #DDB61C",
"N  c #E3B501",
"B  c #E6B801",
"V  c #EBBB00",
"C  c #F0BF01",
"Z  c #C4A423",
"A  c #CAAB2E",
"S  c #D0B027",
"D  c #D3B32D",
"F  c #D8B72A",
"G  c #C9AB36",
"H  c #CBB03F",
"J  c #DAB830",
"K  c #D3B437",
"L  c #E6BE28",
"P  c #E2BE36",
"I  c #EFC001",
"U  c #EFC20F",
"Y  c #F4C303",
"T  c #F8C605",
"R  c #F7C903",
"E  c #FCCB06",
"W  c #F4C408",
"Q  c #FECE0B",
"!  c #FFD00E",
"~  c #EBC11E",
"^  c #FFCF11",
"/  c #F8C91B",
"(  c #FFD014",
")  c #FFD21C",
"_  c #F4C924",
"`  c #FACE23",
"'  c #F3CB2C",
"]  c #FFD424",
"[  c #FFD62C",
"{  c #EEC932",
"}  c #E4C43D",
"|  c #F6D031",
" . c #FED733",
".. c #FFD834",
"X. c #FCD53B",
"o. c #FFD93C",
"O. c #8D8356",
"+. c #92875A",
"@. c #968A5A",
"#. c #9D915D",
"$. c #9A8F6F",
"%. c #9E9377",
"&. c #AE9E6A",
"*. c #ADA16F",
"=. c #BCAA6A",
"-. c #B1A277",
";. c #BEAD75",
":. c #CFB345",
">. c #CEB34A",
",. c #D7BA46",
"<. c #D0B752",
"1. c #D4BC5A",
"2. c #D6BE64",
"3. c #C0B074",
"4. c #D5BF74",
"5. c #DFC451",
"6. c #DCC05C",
"7. c #EECE47",
"8. c #E2C344",
"9. c #F0CC42",
"0. c #FBD644",
"q. c #FFDB44",
"w. c #FFDC4C",
"e. c #F7D44B",
"r. c #E3C85F",
"t. c #E8CA52",
"y. c #EDD25F",
"u. c #F9D752",
"i. c #FEDD53",
"p. c #F7D95F",
"a. c #FBD959",
"s. c #FFDE59",
"d. c #FEDF5A",
"f. c #FFDF5C",
"g. c #FFDF5E",
"h. c #FFDE5A",
"j. c #FFE15F",
"k. c #FEE05D",
"l. c #FEE05E",
"z. c #DDC56D",
"x. c #D4C175",
"c. c #DAC77A",
"v. c #D5C379",
"b. c #F3D661",
"n. c #FEDF61",
"m. c #FEDF65",
"M. c #FDDE63",
"N. c #F6DC6E",
"B. c #EAD57C",
"V. c #F7DE73",
"C. c #F4DC7E",
"Z. c #F8DF7B",
"A. c #FFE061",
"S. c #FFE063",
"D. c #FFE165",
"F. c #FFE065",
"G. c #FFE167",
"H. c #FFE067",
"J. c #FFE265",
"K. c #FFE165",
"L. c #FFE169",
"P. c #FFE16A",
"I. c #FEE16A",
"U. c #F8E076",
"Y. c #FDE37C",
"T. c #D4C486",
"R. c #E5D387",
"E. c #EAD488",
"W. c #F6DE84",
"Q. c #F8DF82",
"!. c #F7E38C",
"~. c #FAE282",
/* pixels */
"                                            Y.a.0... .] ] | X.w.D.!..                                                   ",
"                                    x.X.) ) ) ) ) ] ) ] ] ] ] ] [ ] ]  .i.;.                                            ",
"                                0.^ ^ ) ) ) ) ) ] ] ] ] ] [ [ [ [ ] ] [ ] ] ] p.                                        ",
"                          0 X.Q ( ( ( ) ) ) ] ] ] [ [ [  .[ [  .[  .[ [ [ [ [ ] ] S.$                                   ",
"                        i.Q Q ^ ( ) ) ) ] ] ] [ [ [  . . . . . . . . ... . .[ [ [ ] [ U.                                ",
"                    x.Q Q Q ( ( ) ) ) ] ] ] [ [  . . . . . . .X...o..... ... .[ [ [ [ ] [ q                             ",
"                  a.E E Q Q ^ ) ) ) ] ] [ [  . . . ...o.o.X.q.o.o.o.o.o.o... ... . .[ [ ] ] U.                          ",
"                 .E E Q ^ ^ ) ) ) ] ] ] [  . . . .o.q.o.o.q.q.q.o.q.q.q.o.o.o.o... .[ [ [ ] ) a.                        ",
"              | E E Q Q ^ ( ) ) ] ] [ [ [  ...o.o.o.q.q.q.q.q.q.w.q.q.q.q.q.o.o.o... .[ [ ] ] ) i.                      ",
"            | E E E Q Q ^ ) ) ) ] ] [ [  .o.o.o.q.q.q.w.w.w.w.w.w.w.w.w.q.q.q.o.o.o... . .[ [ ] ) e.                    ",
"          ` T E E E Q ( ( ) ) ] ] [  .S 2 + % 4 } q.w.w.w.w.i.i.i.w.w.w.w.w.q.q.q.o.o.o. .[ [ [ ] ) u.                  ",
"        e.R E E E Q Q ( ( ) ] ] [  .Z O .       % 7.i.w.i.i.w.k.d.i.i.i.w.i.w.w.q.q.o.o... .[ ] ] ) ) V.                ",
"      Q.Y T E E E ! ^ ( ) ) ] ] [ ' ,             8 i.a.k.i.k.k.g.d.i.i.k.q.i.w.q.q.o.o. . . .[ ] ] ) ( 9               ",
"      U Y R E E E ! ! ( ) ) ] [ [ F o   .     .   % i.d.k.k.j.j.g.S.j.j.k.k.i.w.w.w.q.o.o. . .[ [ ] ] (  .              ",
"      _ W T E E E Q ( ) ) ] ] [  .F .   .       . * i.g.S.S.S.D.D.D.S.j.k.w.i.w.i.w.q.q.q. . .[ [ ] ] ) ) m.            ",
"        Z.Q E E ! ! ( ) ) ] [ [ [ { =             7 j.S.S.L.D.D.D.D.D.S.j.k.k.i.i.w.q.q.o.o... .[ ] ] ) ) ^ >           ",
"            0.Q Q ! ( ) ] ] [ [  .o.y .       . o 5.n.D.D.D.L.L.D.L.D.L.D.S.d.i.i.w.w.q.q.o. . .[ ] ] ) ) ( q.          ",
"              O.] ^ ) ) ) ] ] [  ...o.u = O + 3 ,.l.D.D.I.D.J.D.L.D.L.D.D.S.j.d.i.i.w.q.q.o. . . .[ ] ) ) ^ ^ -         ",
"                  M.) ) ] ] [  . ...q.q.0.,.} k.l.S.S.L.L.D.I.L.D.L.L.D.D.D.j.d.i.i.w.q.q.o.o.[ [ [ ] ] ) ^ ! e.        ",
"                    +.[ ) ] [ [  .o.o.q.q.w.w.w.l.S.J.J.D.D.L.L.L.L.D.L.L.D.S.k.k.w.w.w.q.o... .[ [ ] ] ) ( ( )         ",
"                        ~. .[  . .o.o.q.w.w.i.k.d.S.D.L.L.L.D.L.L.D.L.D.D.D.S.g.i.w.w.q.q.o.X. . .] ] ) ) ) ! Q ~.      ",
"                            i.[ [ o.o.q.q.i.w.i.d.S.D.D.D.L.D.L.L.D.D.L.D.D.j.i.i.w.w.w.q.o... .[ [ ] ` ) ( ( Q o.      ",
"                              @.e...o.q.q.w.i.k.d.j.D.D.D.L.L.D.D.L.D.L.L.D.j.d.i.w.w.q.q.o... .[ [ ] ) ( ( Q Q ^       ",
"                                  U.q.o.q.i.w.i.i.g.M.D.L.D.D.L.L.D.L.D.S.S.j.d.i.i.w.q.q.o... .[ [ ] ) ) ( ^ Q E w     ",
"                                      k.q.q.w.i.i.g.j.D.D.D.D.L.D.D.L.S.S.j.i.i.i.w.q.q.o.o. . .[ [ ) ) ) ^ ^ Q E N.    ",
"                                        #.i.w.w.i.i.i.j.S.M.D.D.D.j.D.S.j.d.i.i.w.w.e.q.o... .[ [ ] ] ) ( ^ Q Q E i.    ",
"                                            L.w.i.i.i.d.j.j.S.S.k.k.k.k.i.i.i.i.w.q.q.o.o... .[ ] ] ] ) ^ ( Q Q E X.    ",
"                                              : g.w.i.a.i.d.d.k.k.k.k.k.i.i.i.w.w.q.o.o.o. . .[ ] ] ) ) ( Q Q E E `     ",
"                                                  C.i.i.i.i.i.k.k.i.k.i.w.i.w.w.q.q.o..... .[ [ ] ) ) ) ( Q Q E E )     ",
"                                                      S.w.i.i.w.i.w.q.w.w.i.q.q.q.o.o... . .[ ] ] ) ) ( ( Q E Q E ]     ",
"                                                      ~.w.w.w.w.i.i.w.w.q.w.q.o.o.o..... .[ [ ] ) ) ( ( ! ! E E E /     ",
"                                                    i.q.q.w.q.w.q.w.q.q.q.q.q.o.o... ...[ ] ] ] ) ) ( ! ! E E E T _     ",
"                                                Y.o.o.q.q.q.q.q.q.q.q.q.o.o.o.o. . ...[ ] [ ] ) ) ( ( Q Q E E E T _     ",
"                                            O.0. . .o.o.o.o.o.o.o.o.o.o.o...o. .[  .[ [ ] ] ) ) ( ( ( ! E E E T T '     ",
"                                          i.[ [  . . . .o.....o.o.o. . . . . . .[ [ ] ] ] ) ) ) ( ( ! ! E E E T Y 9.    ",
"                                      c.] ] [ [ [  .[  ..... ... ...X. . . .[ [ [ [ ] ] ) ) ) ( ! Q E E E E T R Y b.    ",
"                                  6 ..) ) ] ] ] ] [ [  .[  .[  .[  . .[ [ [ [ ] ] ] ) ) ) ) ( ( Q Q E E E T T C V R.    ",
"                                i.( ( ) ) ) ) ] ] ] ] ] ] [ [ [ [ [ ] [ [ ] [ ] ] ) ) ) ( ( ! ! Q E E E E T Y C V       ",
"                            =.) Q Q ( ^ ( ) ) ) ) ) ] ] ] ] ] ] ] ] ] ] ] ] ) ) ) ) ) ( ( ( ! E E E E T T Y C V ~       ",
"                          X.Q E E E Q Q ( ( ( ) ) ) ) ) ] ) ] ] ] ) ] ) ) ) ) ) ( ( ( ( ! ! E E E E E T Y Y V B y.      ",
"                      B.T T E E E Q Q Q ! ! ( ( ( ( ) ) ) ) ) ) ) ) ) ) ) ( ( ( ( ( Q Q Q E E E E E T W C V V B         ",
"                  < L V C Y T E E E E E Q Q ! ! ( ^ ( ( ( ( ) ( ( ( ) ( ( ( ( ! ^ Q ! Q E E E E E T Y C V V B L         ",
"                t.N B V V Y Y Y R E E E E E ! E Q Q ! ( ( ( ! ! ( ( ( ! ( ! ! ! E ! E E E E E E Y Y Y V V B N R.        ",
"            &.M k N N N V V V Y T T E E E E E E E Q E Q ! ! ! ! ! ! Q Q Q Q ! E E E E E E T E Y Y C V B B N M           ",
"          K l j j k k N B B V I Y T T T E E E E E E E E E E ! E E E E ! E E E E E E E E R T Y V V V B N N z E.          ",
"      2.f f f h j k k z z B B V V V I Y R T T E E E E E E E E E E E E E E Q E E E T R Y T Y I V V B N N k P             ",
"    *.i i p f g h h j k z z N B V V V I Y Y T T R R E E E E E E E E E E T E T T R T Y Y V V V V B N z z x >             ",
"      H r i p f g h h j k k z N N V V V V I I Y Y T R T T T R T E R T E R Y T Y I Y Y V V V B N N N k j r.              ",
"        Z t i p f f h h j j k N z N B B B V V V C C C Y Y W C Y Y Y Y Y Y Y V V V V V V B N N z z k j P                 ",
"X   X     s r r r f f h h j j j k k k N N B B V V B V V V C C C I V V I V V V V B B N N N z z j j j m         X       X ",
"          ;.s r r p p f g g h j j j k N z z N N B B B B V V B B V B V V V B V B N N N N z k k j j l 5   X     X   X X   ",
"X X X X X X O.s r r p i a g g h j j j k k k z N N z N N N N N B N B N N N N N z N k k j j j j j b 1 X X   X   X X   X X ",
"@ X X X @ X X 9 c t t t p p f f g h h j j j j k k k N N z z k N z N z N k N k k j j j j j h h n 5 X X X @ X X X X X X X ",
"X X X X X X X X : c t t r i p p p g g g h j h j j j j j j k k k k k j j j j j j j j j h h g D X @ X X X X X X X X X @ X ",
"X X X X X X @ X X X G r r r t r p p a f g g h h h h h j j j j j h j j j j h j h h g g g a 1.X X X @ X X X X @ X X X X X ",
"@ @ @ @ @ X @ @ @ @ @ v.s r t r r i i p a a a a g g g h g h h h h h g h g h g a g f a v -.@ @ @ @ @ @ @ @ @ @ @ X @ @ @ ",
"@ @ @ @ @ @ # @ @ @ @ @ @ >.s r r t t t p t p f p p f f f f f f a a g f f f f p p a z.@ @ @ @ @ @ @ @ @ @ @ # @ @ @ @ @ ",
"# # # # # # # # # # # @ # # # <.c r t t t r r t p p p p p p p a p p p p p p s c 2.# # # # # # # # # # # # # # # # # # # ",
"# # # ; # # ; # # ; ; # ; # # ; ; x.G t t r r r t t r r r r t t r r i i t >.T.; ; # ; # ; ; # # # ; # # ; # # ; ; # # # ",
"; ; ; ; ; ; ; ; ; ; ; ; ; ; ; ; ; ; ; ; $.1.c r t t r r t t t t t A 2.%.; ; ; ; ; ; ; ; ; ; ; ; ; ; ; ; ; ; ; ; ; ; ; ; "
};
