/* XPM */
static char *da82a0d73df3423ba84d79986adc28f4bwCeNapGdg2LpFw6[] = {
/* columns rows colors chars-per-pixel */
"60 60 175 2 ",
"   c #000000",
".  c #070900",
"X  c #0C0A02",
"o  c #01000C",
"O  c #191606",
"+  c #1E1A07",
"@  c #101008",
"#  c #010014",
"$  c #02001D",
"%  c #181712",
"&  c #282306",
"*  c #2B250B",
"=  c #26210D",
"-  c #372E0D",
";  c #2E2A1F",
":  c #22221A",
">  c #020024",
",  c #242225",
"<  c #3D3A2D",
"1  c #463B0E",
"2  c #423F2E",
"3  c #433E38",
"4  c #4F420D",
"5  c #4C4318",
"6  c #6C5D1A",
"7  c #464237",
"8  c #45423D",
"9  c #534D37",
"0  c #6A5B22",
"q  c #7B6A24",
"w  c #5B5444",
"e  c #6F684C",
"r  c #6D664A",
"t  c #706748",
"y  c #877E5D",
"u  c #BF9701",
"i  c #BD9801",
"p  c #A58C25",
"a  c #B0982C",
"s  c #C49C01",
"d  c #CA9F02",
"f  c #C29D0B",
"g  c #C29D10",
"h  c #CCA301",
"j  c #D1A702",
"k  c #D5AA01",
"l  c #DAAD01",
"z  c #D3AB0E",
"x  c #DEB101",
"c  c #DBB00B",
"v  c #C5A31C",
"b  c #CDA91F",
"n  c #C4A014",
"m  c #D2AC17",
"M  c #D7B017",
"N  c #DEB819",
"B  c #DAB51F",
"V  c #E3B501",
"C  c #E6B801",
"Z  c #EBBB01",
"A  c #F1BF01",
"S  c #EBBF1E",
"D  c #C3A423",
"F  c #CAAB2E",
"G  c #D2B22B",
"H  c #D8B72A",
"J  c #C9AB36",
"K  c #DAB830",
"L  c #D4B538",
"P  c #E7BE28",
"I  c #E1BD35",
"U  c #EFC001",
"Y  c #EFC20D",
"T  c #F4C303",
"R  c #F9C706",
"E  c #FCCB06",
"W  c #F4C408",
"Q  c #FECD0B",
"!  c #FFD00E",
"~  c #ECC11D",
"^  c #FFCF11",
"/  c #FACD1C",
"(  c #F5C91E",
")  c #FFD114",
"_  c #FFD21C",
"`  c #F4CA24",
"'  c #FBCF24",
"]  c #F3CB2A",
"[  c #FFD424",
"{  c #FFD62C",
"}  c #EEC932",
"|  c #E5C33D",
" . c #F4D031",
".. c #FED733",
"X. c #FFD834",
"o. c #F7D23C",
"O. c #FED63A",
"+. c #FFD93C",
"@. c #8D8357",
"#. c #918659",
"$. c #968A5A",
"%. c #9D915D",
"&. c #9A8F6F",
"*. c #9E9377",
"=. c #AC9F6A",
"-. c #ADA16F",
";. c #BCAA6A",
":. c #B8A876",
">. c #CEB243",
",. c #CEB34A",
"<. c #D8BA45",
"1. c #D1B853",
"2. c #D4BC5C",
"3. c #D5BE64",
"4. c #C0B074",
"5. c #DEC350",
"6. c #DAC15C",
"7. c #EECE47",
"8. c #E3C447",
"9. c #F0CC42",
"0. c #FAD745",
"q. c #FFDB44",
"w. c #FFDC4C",
"e. c #F7D54B",
"r. c #E3C85F",
"t. c #E8CA52",
"y. c #EFD15F",
"u. c #F8D752",
"i. c #FBD955",
"p. c #FFDD55",
"a. c #FEDC54",
"s. c #FEDE57",
"d. c #FEDD52",
"f. c #F7D95F",
"g. c #FBDA59",
"h. c #FFDE59",
"j. c #FFDF5B",
"k. c #FFDF5C",
"l. c #FFDF5E",
"z. c #FFDE5A",
"x. c #FFE057",
"c. c #FFE15F",
"v. c #FEE05C",
"b. c #FEE05E",
"n. c #DDC56D",
"m. c #D4C175",
"M. c #DAC77A",
"N. c #D4C278",
"B. c #FEDF61",
"V. c #FBDD67",
"C. c #FEDF65",
"Z. c #FEDE62",
"A. c #FEDF6B",
"S. c #F5D968",
"D. c #EBD67B",
"F. c #F7DE77",
"G. c #F5DD7D",
"H. c #F8DF7B",
"J. c #F8DD72",
"K. c #FFE061",
"L. c #FFE063",
"P. c #FFE262",
"I. c #FFE165",
"U. c #FFE167",
"Y. c #FFE264",
"T. c #FFE165",
"R. c #FFE169",
"E. c #FFE169",
"W. c #F8E076",
"Q. c #FDE37C",
"!. c #D4C486",
"~. c #E5D387",
"^. c #E8D588",
"/. c #F7DF82",
"(. c #F9E287",
/* pixels */
"                                                  . (.V.w.O...[ [ { O.0.g.Q.                                            ",
"                                            4.d...[ [ [ [ [ [ ' [ _ _ _ _ _ _ _ o.m.                                    ",
"                                        f.[ [ { [ { [ { { [ { [ { [ [ [ [ _ _ / ) ) ^ q.        .                       ",
"                                  % Z.[ [ [ { { ..{ { ......{ ..{ [ { [ [ [ _ _ _ ) ) ^ ! o.t                           ",
"                                Q.{ [ [ { { { ......X...........X.{ { [ { [ [ _ _ _ ) ) ) Q Q i.                        ",
"                            e { [ { { { ..X.....X.X.O.O.O.O.O.X.O...X...{ { { [ [ _ _ _ ) ) Q Q Q N.                    ",
"                          F.[ [ { { ....X.X.X.+.+.+.+.+.+.+.X.+.+.X.X.{ X.{ { { [ [ _ _ ) ) ! Q Q E i.                  ",
"                        i.[ [ { { ......O.X.q.+.q.+.q.q.q.q.+.q.+.+.+.X.O.O...{ { [ [ _ _ ) ) ! Q E E ..                ",
"                      i.[ [ [ { { X.X.+.+.+.q.q.q.q.w.q.q.w.q.q.q.q.+.+.+.X.....{ { [ [ _ _ ) ) Q Q E E ..              ",
"                    0._ [ [ { X.X.X.+.+.q.q.q.q.w.w.w.w.w.w.w.w.q.q.q.q.+.+.X.X.X.{ [ [ _ _ _ ) Q Q E E Q ]             ",
"                  u._ [ [ { { X.X.+.+.q.q.q.w.w.w.w.d.w.x.w.w.x.w.w.q.| 6 & + 4 G { { { [ _ ) ) ! ! E E E E `           ",
"                J._ [ [ { { ....+.+.+.q.w.w.d.w.d.p.p.p.d.p.p.w.i.w.7.= .       O D { { [ _ _ ) ) ! ! E E E T e.        ",
"              w _ _ [ [ { { ..X.+.+.q.q.w.w.d.p.p.p.j.v.v.j.j.x.p.d.q .   .   .   1 ] { [ [ _ _ ) ! Q E E E R T G.      ",
"              .._ _ [ [ { X...+.+.q.q.w.w.d.p.j.c.v.c.Z.c.c.c.k.j.i.*           . . H { { [ [ _ ) ) ! E Q E R T Y       ",
"            V._ _ [ [ { X.X.X.q.q.q.w.w.w.p.p.c.L.L.T.T.T.T.L.L.k.g.=     .       . H O.{ [ [ _ ) ) Q E E E E T `       ",
"          2 / ) _ _ [ { { X.+.+.q.q.w.x.p.j.c.L.L.L.T.T.T.T.T.L.Z.Z.0 .       .   - } { { [ [ _ _ ) ^ Q E E Q H.        ",
"          q.) ) _ [ { { { X.+.+.q.w.w.d.v.j.c.L.T.E.E.T.E.T.E.T.T.L.5.@       . X p O...{ { [ [ _ _ ^ Q Q 0.            ",
"        : ! _ _ _ [ { { ..O.+.q.q.w.w.d.p.c.L.T.E.T.T.E.T.E.E.T.E.L.c.<.5 + O - a q.O...{ { [ _ _ ) ) [ @.              ",
"        e.) ) _ _ [ { { X.O.+.q.q.w.d.d.v.c.T.T.T.E.T.T.T.E.T.E.T.L.c.v.j.8.<.0.q.+.X...{ { [ _ _ ) C.                  ",
"        ) ) ) _ [ [ { { X.X.+.q.q.w.d.p.v.L.T.E.E.T.E.E.E.T.E.T.T.L.L.v.p.d.w.q.q.+.X.....{ [ [ { #.                    ",
"      /.Q ) ) _ _ [ [ ....X.+.q.w.w.d.p.c.L.T.T.T.E.V.E.E.T.E.T.T.T.L.v.x.x.w.w.q.q.X.X...{ { (.                        ",
"      O.Q ! ) _ [ [ [ { ..X.+.q.q.w.w.p.p.c.L.T.E.T.E.T.E.E.T.E.U.T.L.v.x.w.w.w.q.+.+.X.{ i.                            ",
"      Q Q ) ) _ [ [ { ..X.O.+.q.q.w.w.p.j.c.L.T.T.E.T.E.T.E.T.E.T.T.c.j.d.w.w.q.q.+.O.0.$.                              ",
"    r Q Q Q ) _ / [ [ { X.X.X.q.q.w.w.x.p.c.L.L.E.T.E.T.E.T.E.T.T.c.c.j.d.w.w.q.+.q.W.                                  ",
"    A.E E Q ) _ _ [ [ { X.X.X.+.q.w.w.d.p.j.c.L.T.T.T.T.E.T.E.T.L.c.j.p.d.w.0.w.x.                                      ",
"    i.E Q ! ) ) _ [ [ { { ..O.+.+.q.w.w.d.p.p.v.L.T.L.T.T.E.L.L.c.j.p.d.w.w.w.%.                                        ",
"    O.E E Q ) ) _ _ [ [ { ....+.+.q.w.w.w.d.p.v.j.c.L.L.L.c.c.k.j.d.d.w.w.E.                                            ",
"    ' E E Q ^ ) _ _ [ [ X.X...O.+.q.q.0.w.d.d.x.p.j.v.j.j.j.j.j.d.d.i.Z.;                                               ",
"    ' E E ! ! ! ) _ [ [ { { X.X.+.+.q.q.w.w.d.w.d.p.p.p.p.p.p.d.d.w./.                                                  ",
"    / E E E Q ) ) _ _ [ [ { { X.X.X.q.q.q.q.w.w.w.w.d.d.d.w.d.w.L.                                                      ",
"    / E E E Q Q ^ _ _ [ [ { { X.X.X.+.+.q.q.w.w.w.w.w.w.w.w.w.w./.                                                      ",
"    ( E E E Q Q ^ ^ _ _ [ [ { { { X.X.+.+.+.q.q.q.q.q.w.w.w.q.q.q.j.                                                    ",
"    ` R E E Q Q ! ! _ _ _ [ [ { X.{ X...X.+.+.+.q.q.q.q.q.q.q.q.+.+.+.Q.                                                ",
"    ] T E E E E Q ! ) ) _ _ [ [ { { ..X.X.O...+.+.+.+.+.q.+.+.O.+.+.O.X.0.@.                                            ",
"    7.T R E E E Q ! ! ) _ _ _ [ [ [ { { ..X.....O.+.+.+.X.X.X.O.X.X.{ X.{ { i.                                          ",
"    y.A T R E E E E Q ) ) _ _ _ [ [ [ { { { ..X.X.......O.X.....X.X.{ { { [ [ [ M.                                      ",
"    ~.Z T T R E E E Q Q Q ) ) _ _ _ [ [ [ { { { { { { ..{ ....{ { { { [ [ [ [ _ _ ..9                                   ",
"      Z A T R E E E E Q Q ) ) _ _ _ _ [ [ [ [ { { { { { { { [ { [ [ [ [ [ [ _ _ ) ) ) p.                                ",
"      ~ Z U T T E E E Q Q Q ! ) ) _ _ _ _ _ [ [ [ [ [ [ [ [ [ [ [ [ [ _ _ _ ) ) ) Q Q ! / ;.                            ",
"      y.Z Z U T R E E E E Q Q Q ) ) ) _ _ _ _ _ _ _ [ [ [ _ _ [ _ _ _ ) / ) ) ^ ^ Q E E E Q o.                          ",
"        C Z A A T E E E E E E ! ! ! ! ) ) _ _ ) _ _ _ _ _ _ _ _ _ _ _ ) ) ) ! ! Q E E E E E R W D.                      ",
"        P C C Z T T R E E E E E E ! ! Q ! ) ) ) ) _ ) ) _ ) ) ) ) ^ ) ! ! Q Q ! E E E E E R T T Z S 2                   ",
"        ~.V C C Z U T T E E E E E E E ! Q Q ) ! ! ) ! ) ) ! ! ) Q ) Q ! Q E E E E E E E R T U Z Z C V t.                ",
"          S V C Z Z Z T T R E E E E E E E Q E Q ! ! ! ! ! ! ! ! Q Q ! E E E E E E R E T T U Z Z C V x x H =.            ",
"          ^.V V V C C A T T T E E E E E E E E E E E E E E Q E E E E E E E E E E R T T T Z Z Z V V x l k j z L           ",
"            I l V V Z Z Z U U T T E E E E E E E E E E E E E E E E E E E E Q R R T T Z Z Z C C x x x k j h d h s 3.      ",
"            < c x x V C C Z Z U U U T R E E E E E E E E E E E E E E E E T T T T U Z Z Z C V x x l k k h h h s s i -.    ",
"              r.l l l V C C Z Z U U U T T T R T E R E E E R R R R T T T T T Z Z Z Z C V V x x l k k h h d s i i >.      ",
"                K l l l V V V C Z Z Z Z Z A T A T T T T T T T T T U Z T Z Z Z Z C V V x x l k k k h h d s i i D         ",
"o   o     o   o   M k l l l x V V V C Z Z Z Z Z U Z Z Z Z A Z Z Z Z Z Z Z C C V V x x l l k j h h h d s i i i       o   ",
"        o     o   8 z j k k l x x x V V C C Z Z C Z Z Z Z Z Z Z Z C C C V V x x x l k k k k j h h d i i i g :.o   o o   ",
"o o o o o o   o o   3 m j k k l k x x x V l V V V V V V C V V V C V V x x x l l l k k j h h h d d i i i f @.  o o   o o ",
"o o # o o o o o o o o 8 M h j j k k k k k l x x V l V x x x x x x x l x k l k k j j h h h h s s i i i g w o o o o o o o ",
"o o o o o o o o o o o o # G h h j j k k k k k l l k l l l l l k k k k k k j j j h h h h s s i i i i v , # o # o o o o o ",
"o # o o o o # o o o o # # o 6.h h h j j j j k k k k k k k k k k k j j j h h h h d d s s i i i i i J o o o o o o o o o o ",
"# # o # # # # # # # # # o # # :.D d d h d h h j h j h j j h j h h h h h h d d d s s i i i i i f m.# # # # # # # # # # # ",
"# # # # # # $ # # # # # # # # # # n.d s d d d h d d h h d d h d h d d s s s i s i i i i i i ,.# # # # # # # # # # # # $ ",
"$ $ $ $ $ $ $ $ $ $ $ $ $ $ $ $ $ $ $ 3.n s s s s s s s s s s s s s s i i i i i i i i n 1.$ $ $ $ $ $ $ $ $ $ $ $ $ $ $ ",
"$ $ $ $ $ $ $ > $ > $ $ > > $ > $ $ > $ > !.,.f s i i i i i i i i i i i i i i i s J m.> $ > > > $ > $ > > $ > $ $ $ $ $ ",
"> > > > > > > > > > > > > > > > > > > > > > > > *.3.F i i i i i i i i i i g 2.&.> > > > > > > > > > > > > > > > > > > > "
};
