/* XPM */
static char *_017_6fb32ac38d6851a485b1d14f421e43b5c55048dcb5a845a0fe118fba3abf0726[] = {
/* columns rows colors chars-per-pixel */
"60 60 166 2 ",
"   c #000000",
".  c #0B0B02",
"X  c #01000C",
"o  c #191607",
"O  c #1E1A07",
"+  c #161503",
"@  c #010014",
"#  c #02001D",
"$  c #181712",
"%  c #282306",
"&  c #26210D",
"*  c #2B250B",
"=  c #362E0C",
"-  c #2D2B1F",
";  c #25221B",
":  c #020023",
">  c #23222A",
",  c #3A3935",
"<  c #453A0D",
"1  c #423F2E",
"2  c #403C3B",
"3  c #4E420E",
"4  c #4C4318",
"5  c #6B5C19",
"6  c #444135",
"7  c #464239",
"8  c #524C36",
"9  c #58513E",
"0  c #6A5B22",
"q  c #7B6A25",
"w  c #5D5548",
"e  c #6F6649",
"r  c #6F684C",
"t  c #6E6659",
"y  c #867E5A",
"u  c #BE9701",
"i  c #BD9802",
"p  c #A68D26",
"a  c #B0982C",
"s  c #C39C01",
"d  c #C29D0A",
"f  c #C29D10",
"g  c #C7A102",
"h  c #CCA301",
"j  c #D1A702",
"k  c #D5AA02",
"l  c #DAAD01",
"z  c #D2AA0D",
"x  c #DEB101",
"c  c #DBB00B",
"v  c #C4A014",
"b  c #C5A21C",
"n  c #CDAA1C",
"m  c #D1AA11",
"M  c #D2AD1E",
"N  c #D7B017",
"B  c #DDB61C",
"V  c #E3B501",
"C  c #E8B701",
"Z  c #E6B901",
"A  c #EBBB00",
"S  c #F0BF01",
"D  c #ECBF1B",
"F  c #C4A422",
"G  c #CAAB2E",
"H  c #D2AF2D",
"J  c #D4B329",
"K  c #D8B72A",
"L  c #DAB92E",
"P  c #C8A934",
"I  c #C9AB39",
"U  c #CBB03F",
"Y  c #D4B538",
"T  c #E5BD27",
"R  c #E1BD35",
"E  c #EFC001",
"W  c #EFC20F",
"Q  c #F4C303",
"!  c #F9C705",
"~  c #F7C904",
"^  c #FCCB06",
"/  c #F4C408",
"(  c #F8C708",
")  c #FECE0B",
"_  c #EAC01E",
"`  c #FFCF11",
"'  c #F5C91E",
"]  c #FACC1E",
"[  c #FFD114",
"{  c #FFD21C",
"}  c #F5CA25",
"|  c #FBCF23",
" . c #F2C72A",
".. c #F5CE2B",
"X. c #FFD424",
"o. c #FFD62C",
"O. c #EEC932",
"+. c #E4C43D",
"@. c #F6D031",
"#. c #FED733",
"$. c #FFD834",
"%. c #F7D23C",
"&. c #FDD53A",
"*. c #FFD93C",
"=. c #8E8658",
"-. c #8C8154",
";. c #96895C",
":. c #91855B",
">. c #9D915D",
",. c #9A8E64",
"<. c #9C936A",
"1. c #AC9F6B",
"2. c #ADA16F",
"3. c #BCAA6A",
"4. c #AFA371",
"5. c #BDAE73",
"6. c #CEB34A",
"7. c #DABC40",
"8. c #D6B84A",
"9. c #D1B345",
"0. c #D0B752",
"q. c #D4BC5C",
"w. c #D5BE64",
"e. c #C0B075",
"r. c #DEC350",
"t. c #DAC15C",
"y. c #E3C447",
"u. c #EDCD46",
"i. c #F0CC42",
"p. c #FAD745",
"a. c #FFDB44",
"s. c #FAD64A",
"d. c #FFDC4C",
"f. c #F5D34B",
"g. c #E7CA52",
"h. c #E4C85D",
"j. c #EFD25D",
"k. c #F8D752",
"l. c #FEDD53",
"z. c #F9D759",
"x. c #F6DA5F",
"c. c #FFDE5A",
"v. c #FEE05E",
"b. c #DDC56D",
"n. c #D4C174",
"m. c #D4C278",
"M. c #DBC87C",
"N. c #F3D661",
"B. c #FEDE62",
"V. c #F7DD6F",
"C. c #FBDE68",
"Z. c #EAD57A",
"A. c #F7DD74",
"S. c #F4DD7C",
"D. c #F8DF7B",
"F. c #FFE165",
"G. c #FFE169",
"H. c #F8E076",
"J. c #FFE479",
"K. c #D4C486",
"L. c #E8D287",
"P. c #E7D589",
"I. c #F6DF82",
"U. c #F8DF82",
"Y. c #FBE281",
"T. c #F9E38D",
/* pixels */
"                                                                                                                        ",
"                                                                                                                        ",
"                          2.                                                                                            ",
"                        U i w.                                                            } W S.                        ",
"                      F i i d                                                           D.! Q Q f.                      ",
"                  5.i i s s h Y                                                         ) ~ ! ! ~ }                     ",
"                y d i i s s h z 2.                                                    p.^ ^ ^ ) ^ ~ @.                  ",
"              w d i i s h h h k B                                                   =.) ^ ^ ^ ^ ^ ^ ^ #.                ",
"            ; d i i s s h j k k l g.                                                X.) ) ) ^ ) ^ ^ ^ ^ o.              ",
"            F i s s s h h k c l V V 6                                             C.[ [ ) ) ) ) ) ^ ^ ^ ^ c.            ",
"          P i i s s h h j k l x V Z _                                           :.{ [ [ [ [ [ ` ` ) ) ^ ^ ^ n.          ",
"        m.u i i s s j j k l x V Z C A Z.                                        o.{ { { [ [ [ [ [ [ ) ) ) ^ )           ",
"        d i i s s j j k l l V V C A Q /                                       Y.X.X.{ { { { { { [ { ` [ ) ) ) l.        ",
"      6.i i s s h j j l l V Z C A Q Q ~ %.                                    o.X.X.X.X.X.{ X.{ { { { [ [ ) ) ` e       ",
"      i i i s s h j k l V V C A A Q ! ^ ^ 3.                                l.o.o.o.o.o.o.X.X.X.{ { { { [ [ ` ) %.      ",
"    0.i i i s h j j l l V C C S Q ! ^ ^ ^ {                               ;.$.o.o.#.#.o.o.o.o.X.X.X.{ { { { [ [ )       ",
"  X f i u s h h j k l x Z A A Q ! ^ ^ ^ ^ ) v.                            d.$.$.#.$.#.#.o.$.$.o.o.o.X.X.{ { { [ ) d.    ",
"  w.i i i s h j k l x V Z C E Q / ^ ^ ^ ^ ) ` 8                         A.$.*.*.$.$.$.$.O.K K ..o.o.X.X.X.{ { { [ `     ",
"  I i i s s h j k l x V C A Q Q ^ ^ ^ ) ) ` [ $.                        a.&.*.*.*.*.a.p = . . < F #.o.o.X.X.{ { [ [ n.  ",
"  i i i s g h k k x V Z A Q Q ! ^ ^ ^ ) ` [ { { M.                    v.*.a.a.a.a.p.a .       . + J #.o.X.X.X.{ { { %.  ",
"<.i i s s h h k l x V C A Q ~ ^ ^ ^ ) ) ` [ { { X.                  >.a.a.d.a.d.d.p.=     .       3 #.$.o.o.X.{ { [ X.  ",
"q.i i s h h j k x x Z A A Q ! ^ ^ ^ ) ` [ { { { X.k.                d.d.d.d.d.d.v.Y O             O $.#.o.o.o.X.{ { [   ",
"b i u i g h k k x V C E E ! ^ ^ ^ ) ) ` [ { X.X.o.o.-.            G.d.d.d.l.d.l.d.y.O             % *.#.$.$.X.X.X.{ { Y.",
"i i i s h j k k x Z A A Q ^ ^ ^ ^ ) ` [ [ { X.X.o.o.a.          - d.d.d.d.v.l.l.v.d.4   .   .     5 *.*.$.$.o.o.o.{ { z.",
"i i s s h j j l V Z A E Q ~ ^ ^ ^ ) [ [ { { X.X.o.$.$.J.        x.d.l.l.c.c.v.v.v.v.8..         * +.a.*.$.#.#.X.X.X.] p.",
"i i s h h j l l x Z A E ! ~ ^ ^ ) ) ` { { X.X.o.#.$.$.*.      I.d.l.c.v.c.v.F.v.v.F.v.r.0 * * q u.a.a.*.*.#.$.o.o.X.{ $.",
"i i s s j j l l V C C Q / ^ ^ ^ ) ` [ [ { { X.o.o.$.*.*.c.    l.l.l.c.v.v.F.F.F.F.F.F.v.v.c.k.d.d.d.a.a.*.$.#.#.o.X.X.o.",
"i i s s h j l x Z C A E ! ~ ^ ^ ) ` { { { X.X.#.$.$.*.*.a.I.F.d.c.c.c.F.F.F.G.F.F.F.F.F.F.v.c.l.l.d.a.a.*.*.#.#.o.X.X.| ",
"i s s h j k l l V C E Q ^ ^ ^ ^ ) [ ` { X.X.X.o.$.&.*.a.a.d.l.l.v.v.c.F.F.G.G.F.F.F.G.F.F.F.c.c.l.d.d.d.a.*.#.o.o.o.X.o.",
"i i s s h k l x Z A A ! ~ ^ ^ ^ ) [ [ { { X.o.o.#.$.*.a.a.d.d.l.v.v.c.F.F.G.F.F.F.G.F.G.F.F.v.c.l.d.d.a.a.*.$.#.o.o.X.o.",
"i i s h j k l x V C E Q ~ ^ ^ ) ) ` [ { X.X.X.#.$.$.*.a.a.l.l.c.v.v.F.F.G.F.G.G.G.F.F.G.F.F.v.c.c.d.d.a.a.*.&.$.o.o.X.$.",
"i i s h j j l x Z A A ~ ~ ^ ^ ) ) [ { { X.X.o.#.$.*.*.a.d.d.d.l.v.F.G.G.F.G.F.G.G.F.F.G.F.F.v.c.c.d.d.a.a.*.*.$.#.o.X.d.",
"i i s s h k l x Z C A ! ~ ^ ^ ^ ) [ [ { X.o.o.$.$.*.*.a.a.d.c.l.v.v.F.F.G.F.G.G.G.G.G.F.G.F.v.v.l.d.d.d.*.*.$.#.#.X.X.C.",
"G i s h j k l x Z C A Q ~ ^ ^ ) ) ` [ { { X.o.o.$.$.a.a.d.d.d.c.v.v.F.G.F.G.F.F.F.G.F.G.F.F.v.c.d.v.d.a.a.a.$.$.o.o.X.T.",
"w.i s s j j k x V A E Q ~ ^ ^ ) ) [ { { { X.o.o.$.$.*.a.d.d.d.l.c.v.F.F.F.F.F.G.G.G.G.F.F.F.v.c.d.d.d.a.*.*.$.$.o.X.X.X ",
"<.s s j h k l x V C E Q ~ ^ ^ ) ) ` [ { X.X.o.o.$.$.*.a.a.d.d.l.c.c.F.F.G.F.G.F.F.F.F.G.v.v.c.c.v.d.d.a.a.*.$.$.$.X.#.  ",
"  d s h h j k V Z C A Q ~ ^ ^ ^ ) [ [ [ { X.o.o.$.$.*.*.a.d.d.l.l.c.v.c.F.F.F.F.F.F.F.F.F.c.c.c.l.d.a.a.*.*.$.#.o.X.v.  ",
"  9.s h h k l x V C A S ~ ^ ^ ^ ^ ` [ { { X.X.o.o.$.$.*.a.a.d.d.d.l.c.c.v.F.F.F.F.F.F.v.c.c.l.d.d.d.a.a.*.$.#.#.o.X.e.  ",
"  K.s s h k k l x C A Q ~ ~ ^ ^ ^ ) [ { { { X.o.o.$.$.*.a.a.a.d.d.l.c.c.c.v.v.v.B.v.v.c.c.l.l.d.d.a.a.a.&.$.$.o.X.X.    ",
"    b s h j k l x Z C A Q ^ ^ ^ ) ) ` [ { { X.X.o.$.$.*.*.a.a.d.d.l.d.c.c.c.c.c.c.v.c.v.l.l.d.d.d.a.*.&.$.#.#.o.X.N.    ",
"    w.s h j k k x V A A ~ ! ^ ^ ^ ) ) [ [ { X.X.o.o.#.#.*.*.a.a.d.d.d.l.d.c.l.c.c.l.l.l.d.d.d.a.a.a.*.*.$.#.o.X.X.      ",
"      d g h j l l V C A Q Q ! ^ ^ ) ) ` [ { { X.X.o.#.$.$.*.*.*.a.a.d.d.d.l.d.d.l.d.d.d.d.d.d.a.a.*.*.$.#.o.o.X.F.      ",
"      b.g h j k l V V C A Q ! ^ ^ ^ ` ) [ { { { X.o.o.#.$.*.*.*.a.a.a.a.d.d.d.d.d.d.d.d.a.a.a.*.*.*.$.$.$.o.o.#.$       ",
"        n h j k l V V C A Q ~ ~ ^ ^ ) ) [ [ { { X.X.X.o.$.#.$.*.*.*.a.a.a.a.d.a.a.d.a.a.a.a.*.*.&.$.#.#.o.X.X.H.        ",
"        4.h h k k x Z C A Q Q ~ ^ ^ ^ ) ` [ { { { X.X.o.o.$.o.$.$.*.*.*.a.a.a.a.a.a.a.*.a.*.*.$.$.#.#.o.o.X.o.          ",
"          t.h h k l x V A A A ~ ^ ^ ^ ^ ) ) [ [ { { X.X.o.o.#.$.#.#.$.*.&.&.*.*.*.&.*.*.*.$.$.$.#.o.o.X.X.X.r           ",
"            J j k k x x C A Q Q ! ~ ^ ^ ) ) [ [ { { { X.X.X.o.o.#.#.$.$.$.$.$.$.*.$.*.$.$.$.$.o.o.o.X.X.X.A.            ",
"              M j k x x Z C C S ~ ~ ^ ^ ^ ) ) ) [ [ { { X.X.o.o.o.o.#.#.#.#.#.#.#.#.#.#.o.$.o.o.X.X.X.X.z.              ",
"              7 m k k x V V A S Q ~ ^ ^ ^ ^ ^ ) ` [ [ { { { X.X.X.X.o.o.o.o.o.$.o.#.o.o.o.o.o.X.X.X.{ k.                ",
"X     X X       6 z k l x V C C A Q ! ^ ^ ^ ^ ) ` [ [ [ { { { X.X.X.X.X.X.o.X.o.o.o.o.X.o.X.X.X.{ { s.X   X X         X ",
"            X X   7 N k l V V Z A Q Q ! ^ ^ ) ^ ) ) ` ` [ [ { { { { X.X.X.X.X.X.X.X.X.X.X.{ { { { k.X   X   X     X X   ",
"X X X X X X X   X   X L l l V V C A Q Q ^ ^ ^ ^ ^ ^ ) ` [ [ [ [ { { { X.{ X.{ { { X.{ { { { { [ A.    X X X   X X X   X ",
"X @ X X X X X X X @ X X h.c x V Z C A E Q ! ^ ^ ^ ^ ^ ) ) ) [ [ [ [ { [ { { { { { { { { { { #.w X X @ X X X X X X X X X ",
"X X X X X @ X X X X X X @ , R V V Z A E E Q / ! ^ ^ ^ ^ ^ ) ) ) ` ` [ [ ` [ [ [ [ ` [ [ ` C.X X X X X X X X X X X X X @ ",
"X X X X X X @ X X X @ X X @ X P.B V Z C C Q Q ~ ~ ^ ) ^ ^ ^ ^ ) ^ ) ` ` [ [ [ ` ` [ ) a.2 @ X @ @ @ X X X X @ X X X X X ",
"@ @ @ @ @ @ @ @ @ X @ @ @ X @ X @ P._ Z C A A E ! ~ ~ ^ ^ ^ ) ^ ^ ) ) ^ ^ ) ) ^ { s.> @ @ @ @ @ X @ @ @ @ X @ @ @ @ @ @ ",
"@ @ @ # @ @ @ @ @ @ @ # @ @ # @ @ # @ # j._ S S S Q Q ( ~ ^ ^ ^ ^ ~ ^ ^ ) ) &.Y.@ @ @ @ @ @ @ @ @ @ @ # @ @ @ @ # @ @ @ ",
"# # # # # # # # # # # # # # # # # # # # # # # L.N.i. .} ' ' ] { X.$.l.V.t # # # # # # : # # # # # # # # # @ : # # # # # ",
"# # # # : # # : # : # # : # : : # : # # : # : : : : # : : : : # : : # : : : # : : # # : : : # : # : # # : : # : : # # # ",
": : : : : : : : : : : : : : : : : : : : : : : : : : : : : : : : : : : : : : : : : : : : : : : : : : : : : : : : : : : : "
};
