/* XPM */
static char *_15574909c7d434ec957e5e787998e624hIKzod2fsXd239I[] = {
/* columns rows colors chars-per-pixel */
"60 60 22 1 ",
"  c black",
". c #000002",
"X c #000004",
"o c #010005",
"O c #010006",
"+ c #010008",
"@ c #01000A",
"# c #01010D",
"$ c #02000D",
"% c #01000E",
"& c #010010",
"* c #010012",
"= c #020016",
"- c #020018",
"; c #03001B",
": c #03001D",
"> c #01001F",
", c #010020",
"< c #010022",
"1 c #020123",
"2 c #040023",
"3 c #020025",
/* pixels */
"............................................................",
"............................................................",
"............................................................",
"............................................................",
"............................................................",
"............................................................",
"............................................................",
"............................................................",
"............................................................",
"............................................................",
"............................................................",
"............................................................",
"............................................................",
"............................................................",
"............................................................",
"............................................................",
"............................................................",
"............................................................",
"............................................................",
"............................................................",
"............................................................",
"............................................................",
"............................................................",
"............................................................",
"............................................................",
"............................................................",
"............................................................",
"............................................................",
"............................................................",
"............................................................",
"............................................................",
"............................................................",
"............................................................",
"............................................................",
"............................................................",
"............................................................",
"............................................................",
"............................................................",
"............................................................",
"............................................................",
"............................................................",
"............................................................",
"............................................................",
"............................................................",
"............................................................",
"............................................................",
"............................................................",
"............................................................",
"............................................................",
"...OO..OOO.OO..O.O.OOOO.OOOO.OOOO.OOOO.O.OO..O.O.O.OO..O.OO.",
"OOOOOOOOOOOOOOOOOOOOOOOOOOOOO+OOOOOOOOOOOOOOOOOOOOOOOOOOOOOO",
"++++++++++++O++++++++++O$++$+++$+++$+$++++++++++++++++++++++",
"$$$$$$$$$$$$$$$$$$$$$$$$$$$$$$$$$$$$$$$$$$$$$$$$$$$$$$$$$$$$",
"###$$$$$####$$$$$$$$$$*$$$$$$$$$$$$$$*$$$$$*$$$$$$##$$$$####",
"$$$$*$$$$$$$********$**$$**$**$***$**$***$*$**$****$$$$$$*$$",
"************************************************************",
"-*----*--*---*--**---------*----**--*;*----*--*-*-*--*--**--",
";;;;;;;;;;;;;;;;;;;;::::;;:::,;:;,::::,:;;;;::;;;;;;;-;;::;:",
",,,;;,,,,,,;;,,,:,,,,,,,,,:,,,,,,,,,,,,,,,:,,,,,;,,,,,,,,,;,",
"111111133333333311111331331133333333333312112313333333311111"
};
