/* XPM */
static char *bc37ee0e3a854fd3b1fcd929d382cf92MJscY4sIcAcIhR90[] = {
/* columns rows colors chars-per-pixel */
"60 60 191 2 ",
"   c #010102",
".  c #090002",
"X  c #01010B",
"o  c #09000A",
"O  c #020114",
"+  c #0A0014",
"@  c #02011C",
"#  c #0E0019",
"$  c #020123",
"%  c #080027",
"&  c #03002B",
"*  c #09002B",
"=  c #030033",
"-  c #0B0033",
";  c #000837",
":  c #04003B",
">  c #09003B",
",  c #050939",
"<  c #0B093C",
"1  c #040143",
"2  c #090044",
"3  c #000C43",
"4  c #02014C",
"5  c #0A004C",
"6  c #000A4C",
"7  c #100045",
"8  c #100841",
"9  c #11014D",
"0  c #020252",
"q  c #0B0054",
"w  c #030954",
"e  c #02025B",
"r  c #0B005C",
"t  c #000A5A",
"y  c #010464",
"u  c #080161",
"i  c #000966",
"p  c #00066A",
"a  c #010A6B",
"s  c #001366",
"d  c #00126B",
"f  c #000673",
"g  c #000871",
"h  c #00077A",
"j  c #010A7B",
"k  c #001275",
"l  c #00137B",
"z  c #000781",
"x  c #000B83",
"c  c #000C8B",
"v  c #011383",
"b  c #011F82",
"n  c #00148B",
"m  c #011A8D",
"M  c #0A1A8B",
"N  c #001593",
"B  c #001993",
"V  c #00129F",
"C  c #001A9A",
"Z  c #03228C",
"A  c #07288F",
"S  c #0B2C93",
"D  c #08259B",
"F  c #0E2F9A",
"G  c #0F3097",
"H  c #10319D",
"J  c #001CA3",
"K  c #001CAB",
"L  c #001DB2",
"P  c #0723A1",
"I  c #0E26A4",
"U  c #052EA4",
"Y  c #0F2DA6",
"T  c #0323AB",
"R  c #042CAC",
"E  c #102FA4",
"W  c #0124B2",
"Q  c #052CB4",
"!  c #0025B9",
"~  c #032AB9",
"^  c #083AB3",
"/  c #0035BB",
"(  c #0B30BD",
")  c #0738BB",
"_  c #0B3EBB",
"`  c #0D41B7",
"'  c #0A42B9",
"]  c #022CC2",
"[  c #012DC8",
"{  c #0037C1",
"}  c #0039C0",
"|  c #0C39C3",
" . c #0030CD",
".. c #003BCA",
"X. c #0D3BCB",
"o. c #123DC3",
"O. c #1233CB",
"+. c #0032D4",
"@. c #063CD3",
"#. c #0C3DD3",
"$. c #043DDD",
"%. c #0D3CD9",
"&. c #1034D0",
"*. c #133CD4",
"=. c #013CE4",
"-. c #0037E8",
";. c #003AEA",
":. c #153FE9",
">. c #0841C6",
",. c #0646CC",
"<. c #0647D5",
"1. c #0B41D7",
"2. c #0A4AD5",
"3. c #0041DB",
"4. c #0E46DB",
"5. c #0049DA",
"6. c #0B4CDC",
"7. c #1646D6",
"8. c #1845D2",
"9. c #1148D6",
"0. c #1344DC",
"q. c #1D44DF",
"w. c #1149DC",
"e. c #1C4BDC",
"r. c #0D52DB",
"t. c #0041E1",
"y. c #0E45E4",
"u. c #0049E4",
"i. c #0E4BE3",
"p. c #0042EC",
"a. c #0D44EC",
"s. c #044DED",
"d. c #0D4BEA",
"f. c #1145E6",
"g. c #1A41E5",
"h. c #114BE4",
"j. c #1045EC",
"k. c #114CEA",
"l. c #0150E6",
"z. c #0B54E5",
"x. c #0452EC",
"c. c #0952EC",
"v. c #1251ED",
"b. c #0042F2",
"n. c #034DF5",
"m. c #0B4BF4",
"M. c #0447FC",
"N. c #014DFF",
"B. c #044DFF",
"V. c #054EFF",
"C. c #014DFD",
"Z. c #094CFB",
"A. c #0F4DF9",
"S. c #0B4DFD",
"D. c #154BF3",
"F. c #124AF5",
"G. c #1749F6",
"H. c #104FF6",
"J. c #114EF3",
"K. c #1B4BF3",
"L. c #1D4DF5",
"P. c #1947FD",
"I. c #134DF9",
"U. c #134AFC",
"Y. c #1648FD",
"T. c #144BFD",
"R. c #134CFD",
"E. c #104CFF",
"W. c #1E4EF8",
"Q. c #0351F1",
"!. c #0052F1",
"~. c #0351F3",
"^. c #0553F3",
"/. c #0652F0",
"(. c #0153F6",
"). c #0451F5",
"_. c #0551F4",
"`. c #0452F4",
"'. c #0553F5",
"]. c #0654F4",
"[. c #0654F6",
"{. c #0154F4",
"}. c #0C51F5",
"|. c #0255FB",
" X c #0051FD",
".X c #0650FF",
"XX c #0251FE",
"oX c #0A51FA",
"OX c #0558FF",
"+X c #1059F3",
"@X c #1452FB",
/* pixels */
"!.s.u.t.t.t.t.p.p.b.b.p.p.u.t.$.3.t.t.=.=.3.3.t.3.t.3.t.3.3.t.3.3.3.3.3.3.<.3.3.3.3.3.3.3.3.3.3.3.t.t.=.;.;.=.$.3.../ } ",
"|.(.n.s.d.d.a.s.M.n.N. X Xn./.x.).).~.^.).).).).).).[.).).).[.).[.[././.[.!.).).^.x.!.x.!.n.x.^.x.x.m.I.R.R.F.A.d.u.5.5.",
"N.N.Z.A.D.K.L.W.F.F.A.A.m.k.k.d.n.n.n.n.n.n.n.M.n.n.n.~.~.n.n.C.oXV.OXOXN.V.N.N.V.V.V.V.V.B.V.C.m.k.D.G.P.P.Y.E.m.m.m.n.",
"N.N.m.a.%.&.O.O.*.*.*.0.7.7.8.7.h.f.d.d.d.i.i.i.k.h.h.h.h.h.h.h.k.v.z.r.d.y.y.y.y.d.f.d.d.f.i.i.e.e.e.q.g.:.:.f.a.m.n.n.",
"OXOXd.X.T N z h j j v m Z A S F E Y Y Y Y Y Y Y Y Y E E E Y Y H ` G G G G G G ` A A A A A A A A S S S D P T W ! <.u.c.x.",
"!.!.6.) B a e 0 4 4 4 4 w w 6 w 0 e e 0 0 0 0 w w 0 w 0 4 w 4 6 3 3 , ; ; ; ; 3 : : : : : : : : 1 1 4 0 e p j c / <.c.c.",
"l.l.2.^ Z i 4 2 8 < < , ; ; = & & $ $ & & $ $ $ @ @ @ @ @ @ @ @ + O O O     ,   @ O O O O O @ @ @ $ & = 1 w g v U ,.z.x.",
"|.(.r._ Z t 1 > % % $ & $ & $ $ @ + + + + + + X o X X o o   o o o X X X X   X X o X o X X o o X O O @ $ = 6 i k R 2.+X}.",
"|. X_.#.B p q > - - * - = & = & ; O @ O O O O X O X X X X X X X X X X X X X X X X O X X X X X X X + @ @ & 4 i x ~ k.V.B.",
"|. XoX@.C p e 2 > - - - = & & & O O ; @ @ @ @ O O O O X X O X X X X X X X X X X X X X X X X X X o o + @ * 1 y v ~ y.S.N.",
"|.N.).1.B a 0 : - - % * & & & $ ; O $ $ ; O @ @ O @ O O O O X X         X                       . . . o @ ; t k Q f.S.M.",
"|. Xc.>.m i w = - % $ $ $ $ @ $ @ @ $ $ @ @ @ + O O O X X X X X X           X             X     . . . . X & 6 k R w.S.B.",
"(.x.r.` l s 3 = & $ @ @ @ @ + + + # + # # + + + o . . . . . . . . o o o o o o o X o o o o o o .           @ 3 s U 7.}.n.",
"!.l.r.` l w 6 ; & & $ $ @ @ @ + # + + + + X . o . . .   .   . .   o o o o X X   o o o o o o o           X @ 3 d U w.F.Z.",
"n.s.h.o.Z a t 1 : : = = & * $ % @ O O X X O X   X                                               o X X X O ; 6 k Q f.E.M.",
"N.m.k.o.Z g e 4 3 : = = ; * % $ @ O O O O X X X X                                                 X X O @ ; w j ~ j.E.M.",
"N.V.h.| B y 4 1 : = * & & $ $ $ @ @ X O O X X X X                                                     X @ = w k R y.Z.N.",
"N.).k.| m y 4 : - * & $ $ $ @ $ O O O O O X X X X X X                                                 X + * w k R w._.N.",
"N. Xk.| m i 4 : = - * $ $ $ @ @ @ O O O O X X X X                                                       + & w k R 0.n.N.",
"N..Xh.| m i 4 : = * * & $ $ $ @ @ O @ X O X X X X                                                       + = w k R 4.oXN.",
"N.).k.| m i 4 : : = * $ $ $ $ $ O O O O O X X X X X   X                                                 + = w k R 4.Z.n.",
"N. Xk.| m y 4 : - * % $ $ $ $ @ @ O O X O X X X X   X                                                 X O * w k R 1.oXN.",
"N..Xi.| m i 4 : = = % * $ $ $ $ @ @ O O O X X X   X                       .                             O * w k R 4.Z.n.",
"N.n.k.| B y 4 : - * * $ $ $ @ @ + O O O O X X X X                                                     X + - w k R 4.).N.",
"N. Xk.| m y 4 : - = % $ * $ $ @ @ + O X O X X X X                                                   .   + $ w k R 4.m.n.",
"N..Xi.| m y 4 : = = * $ $ $ @ $ @ O O O O X X X X X X                                                   O ; 6 k R 4.oXN.",
"N.).k.| m y 4 : - * * $ $ $ $ @ O O O O O X X X X                                                     X + & w k R 4._.N.",
"N. Xk.| m y 4 : = & * * $ $ @ $ + @ O O O X X X   X X                                                   O * w k R 4.Z.N.",
"N. Xi.| B i 4 : > * * $ $ $ $ @ @ @ O O O X X X X X                                                     X & w k R 4.m.N.",
"N..Xk.| m i 4 : = * * $ $ $ $ @ O O O O O X X X X   X                                                 o O & 6 k R 4.oXn.",
"N. Xi.| m y 4 : = - * $ $ $ @ $ @ @ O X O X X X X   X                                                   O * w k R 4._.N.",
"N.).k.| m y 4 : = * & $ $ $ $ @ O + O O O X X X X X                                                     + * w k R 4.oXN.",
" X~.i.X.m i w : = = * & $ @ @ @ @ + O + O O X X X X           o           X             X   X         X O $ w k ^ w.oX X",
" X!.h.>.m i w 1 : * & $ $ $ $ @ O @ O O O O O X X o   X o         X   X       X X     X                 X & 6 k R 6.oX X",
" X).h.>.m i w : = = * & $ $ @ @ @ + @ O O O O X X   X                 X   X   X             X         X O & 6 k Q 6.oX X",
" X^.h.>.m p 0 1 : - = & & $ $ $ @ @ O O O O O X O X X X o   X X   X       X       X X   X X           X @ & 6 l R i.oX X",
" Xn.h.>.Z i e 1 : - = & & $ $ $ @ @ + + O + O O X X   o   X     X X X   X X X     X   X   X     X     X O = w l Q w.oX X",
" Xn.h.X.B p w 4 : : = * ; $ & $ $ # @ @ @ O O O X X X X X   X   X   X X X   X   X X X X X X X X     X X @ & w l Q h.oXN.",
" Xn.d.X.m p e 1 2 > ; - , & & $ % @ @ @ @ O O O + X O X X X X X X X X X X X X X X X X X X X X X X X X O $ = t l R 4.oX X",
" X Xc.o.B p e 1 1 > > , & & ; & $ @ $ $ @ @ @ O O O O X O X X X X O X X X O X O O X X X O X X O O X X + $ = t l ^ h.oXN.",
" Xn.v.*.B g e 5 1 > : : = = = = & $ $ $ $ @ @ @ O O O O O O X X O O O O O O O O O O O O O O O O O O O @ % , e v Q k.n.N.",
" X~.k.>.C g y 5 1 2 > : > = = = & & & & $ $ $ $ @ @ @ O O O O O O O O O O @ O O O O O @ O O O O O O O $ * , e l Q k.n.N.",
"N.n.k.X.C g y 5 5 1 1 : : : ; = = * * & & & & $ $ @ @ @ @ O O @ @ @ @ @ @ @ @ @ @ @ @ @ @ @ @ @ O @ @ % * : e v Q k.n.N.",
" XN.v.1.C f y 0 5 5 2 1 : : : - : = = = & & & $ $ $ $ @ $ @ @ @ @ $ @ $ @ @ @ $ @ $ @ @ @ @ $ @ @ @ @ $ , , i v Q h.n.N.",
" Xn.m.#.C f y q 5 5 2 1 1 1 : : : : = = = = = & & & $ $ $ $ $ $ $ $ $ & $ $ $ $ $ $ $ $ $ $ $ $ $ @ $ % - 1 y v Q k.n. X",
" XN.v.#.C h y q 5 5 5 1 2 1 2 : : : : : = = = = = & & & & $ $ $ & $ $ & & $ & $ & & & $ & & $ & $ $ $ % - 2 y n ( k.C.N.",
" Xn.J.#.C h y q 0 5 2 5 1 2 : 1 1 : : : : : = = = & & & & $ & & & & & & & & & & & & & & & & & & $ $ $ % - 1 y n Q k.m. X",
" XV.k.#.C h p q q 5 5 5 2 1 1 1 1 1 1 1 : : : : = = = & = & & & & = & = = = & = = & = & = = & = = & * = : 1 a n ~ k.C.N.",
" X XH.1.P z p e 5 5 7 2 1 1 4 4 4 1 4 1 1 1 1 : : = : : = = = = : : : : : = : : : : : = : : : = = : = : 3 w a n ] a.V.N.",
"N.n._.@.J z p e q 9 7 9 5 0 0 0 4 4 5 4 4 1 4 1 1 1 : : : ; ; : : : : 1 : 3 1 : : 1 : 1 3 : 1 1 1 1 : ; 1 4 a x [ j.E.M.",
"N.M.d.#.J z f e q 9 9 5 5 5 0 0 5 1 5 1 1 2 1 1 : : : : : = - : : 1 : 1 : : : : : : : : : 1 : 1 : > > : : 0 a v ] j.S.M.",
"n.n.J.1.J z f u q q 5 5 q 0 0 0 4 5 5 1 2 1 2 2 1 > > > : : : > : : > > 2 > 1 : 2 : 2 > : > > > : > - > : w a n ] j.S.N.",
"Z.m.k.*.K x h y u r r q e e e e q 5 5 5 5 5 5 5 1 1 2 1 1 1 2 1 1 2 1 1 1 2 1 2 1 1 2 1 1 2 1 2 7 2 7 > 1 q f c ] j.oXN.",
"m.m.K.%.K c z f p y y y y y y y e e e e e 0 e 0 0 0 0 4 4 4 4 4 0 0 0 0 0 0 4 0 0 4 0 0 0 4 0 0 5 5 5 q e a M J [ F.oXN.",
"Z.m.D.y.L V N c h h h h h h h f f f a f f p p p p p p i p y a i y p a y p p p p p a p p p p a p y y y a l M I (  .m..XN.",
"Z.Z.R.j.[ L K J J C B C N N C N B N N B B B B N m n m n m m v m n m m n m m m n m n m m m n n m B N N N N C W ] +._..XN.",
"N.Z.M.m.y.$.#.X.X.O.X.| o.O.| X.X.X.| X.X.| X.| | | | X.| | | X.| | | | | | | | | ) | | | | | | #.X.#.#.#.*.#.=.m.n.n.N.",
"N.V.oXoXoXm.m.a.d.d.f.h.h.h.h.h.d.d.d.d.d.d.d.d.d.d.i.d.d.d.c.h.v.v.v.d.v.v.m.v.v.v.v.v.v.v.m.v.s.n.d.d.a.F.m.n.M.n.n. X",
"b.M.V.V..X.XV.V.V.oXoX@X}.}.}.oX)..XV..X.X.X.X.X.X.X.X.X.X.X.X.Xn.n.n.~.n.n.n.n.n.n.n.n.n.n.N.n.|.|. X XV.V.V. XN.~. X X",
";.;.n.B.N.N.N.N.N.n.N.n.n.n.n.n.N. XN. X X X X X X X X X X X X X X X X X X X X X X X X X X X X X X XN.N.N.N.N.N. X|. X(."
};
